<svg id="Слой_1" data-name="Слой 1" xmlns="http://www.w3.org/2000/svg" viewBox="0 0 506.02 511"><defs><style>.cls-1{fill:#ff0032;}</style></defs><title>pencil(red)</title><path class="cls-1" d="M438.19,246.38l-17.9,29.72-59.45-35.87,17.92-29.72ZM224.44,421.67V246.79h69.41v59.77Zm19.91-244.29h29.59l15.42,46.28H228.93Zm14.8-81a11.57,11.57,0,1,1,11.56-11.57A11.57,11.57,0,0,1,259.15,96.4Zm0-96.4L315,74.48l-39.88,79.77h-4.42V117.41a34.71,34.71,0,1,0-23.13,0v36.84h-4.42L203.28,74.48ZM97.57,179l-3.4,2.24L51.56,209.32l-3.92-32.78a11.65,11.65,0,0,0-1.83-5L33.08,152.23,52.41,139.5l12.72,19.33A11.69,11.69,0,0,0,69,162.47Zm-72-80.3,14.11,21.44L20.35,132.88,3,106.62ZM87.29,213.46l28.92-19.1L201.3,323.43V449.61l-143-217ZM288.86,494a34.7,34.7,0,1,1-59.63-35.51l.21-.34,87.35-144.88h.2V313l31.91-52.93,29.71,18,29.77,17.88Zm209.49-302.6a74.74,74.74,0,0,1-23.87,24.38l-20.54,13-67.1-40.4,1.91-24.29a74.32,74.32,0,0,1,42.4-61.32l74-34.85,1.46,32.24a11.25,11.25,0,0,0-3.47.15l-28,6.94a70.43,70.43,0,0,0-52.05,53.22,11.56,11.56,0,1,0,22.56,5.05,47.44,47.44,0,0,1,35-35.79l27-6.7,1.21,26.61A74.14,74.14,0,0,1,498.35,191.44Z" transform="translate(-2.99)"/></svg>